<svg xmlns="http://www.w3.org/2000/svg" xmlns:xlink="http://www.w3.org/1999/xlink" viewBox="0 0 690.66 670.54"><defs><style>.cls-1,.cls-20,.cls-21{fill:none;}.cls-2{isolation:isolate;}.cls-3{clip-path:url(#clip-path);}.cls-4{fill:url(#linear-gradient);}.cls-5{fill:url(#linear-gradient-2);}.cls-6{fill:url(#linear-gradient-3);}.cls-7{fill:url(#linear-gradient-4);}.cls-8{fill:url(#linear-gradient-5);}.cls-9{fill:url(#linear-gradient-6);}.cls-10{fill:url(#linear-gradient-7);}.cls-11{fill:url(#linear-gradient-8);}.cls-12{fill:url(#linear-gradient-9);}.cls-13{fill:url(#linear-gradient-10);}.cls-14{fill:url(#linear-gradient-11);}.cls-15{fill:url(#linear-gradient-12);}.cls-16{opacity:0.28;}.cls-17{clip-path:url(#clip-path-2);}.cls-18{fill:#fff;}.cls-19{fill:#536be6;mix-blend-mode:color-dodge;}.cls-20{stroke:#68c5ff;}.cls-20,.cls-21{stroke-miterlimit:10;stroke-width:2.33px;}.cls-21{stroke:#ff2f7f;}</style><clipPath id="clip-path" transform="translate(-7.23 88.74)"><rect class="cls-1" x="32.73" y="-0.5" width="567.27" height="501"/></clipPath><linearGradient id="linear-gradient" x1="581.93" y1="214.04" x2="530.11" y2="70.82" gradientTransform="translate(620 494) rotate(180)" gradientUnits="userSpaceOnUse"><stop offset="0" stop-color="#ffc431"/><stop offset="1" stop-color="#ff8300"/></linearGradient><linearGradient id="linear-gradient-2" x1="174.4" y1="-89.37" x2="301.09" y2="13.8" gradientTransform="translate(56.29 497.73)" xlink:href="#linear-gradient"/><linearGradient id="linear-gradient-3" x1="412.01" y1="205.48" x2="172.04" y2="-119.93" gradientTransform="translate(476.25 694.89) rotate(-135)" gradientUnits="userSpaceOnUse"><stop offset="0" stop-color="#51299f"/><stop offset="1" stop-color="#001270"/></linearGradient><linearGradient id="linear-gradient-4" x1="456.43" y1="287.08" x2="166.21" y2="611.23" gradientTransform="translate(223.35 607.85) rotate(-135)" xlink:href="#linear-gradient-3"/><linearGradient id="linear-gradient-5" x1="125.01" y1="157.41" x2="385.78" y2="334.78" gradientTransform="translate(732.36 595.8) rotate(180)" gradientUnits="userSpaceOnUse"><stop offset="0" stop-color="#e001ff"/><stop offset="1" stop-color="#3239ff"/></linearGradient><linearGradient id="linear-gradient-6" x1="36.54" y1="330.38" x2="297.31" y2="507.75" gradientTransform="translate(584.15 583.91) rotate(180)" gradientUnits="userSpaceOnUse"><stop offset="0" stop-color="#ff2f7f"/><stop offset="0.16" stop-color="#ff3879"/><stop offset="0.41" stop-color="#ff4f6a"/><stop offset="0.72" stop-color="#ff7450"/><stop offset="1" stop-color="#ff9b36"/></linearGradient><linearGradient id="linear-gradient-7" x1="-39.94" y1="237.84" x2="220.83" y2="415.21" gradientTransform="translate(627.18 502.73) rotate(180)" xlink:href="#linear-gradient-6"/><linearGradient id="linear-gradient-8" x1="73.32" y1="515.29" x2="235.91" y2="625.87" gradientTransform="translate(164.51 -521.23)" gradientUnits="userSpaceOnUse"><stop offset="0" stop-color="#ffd531"/><stop offset="1" stop-color="#ff8300"/></linearGradient><linearGradient id="linear-gradient-9" x1="91.01" y1="221.53" x2="253.6" y2="332.11" gradientTransform="translate(342.04 -7.25)" gradientUnits="userSpaceOnUse"><stop offset="0" stop-color="#3239ff"/><stop offset="1" stop-color="#68c5ff"/></linearGradient><linearGradient id="linear-gradient-10" x1="475.1" y1="750.3" x2="871.35" y2="750.3" gradientTransform="matrix(0.16, 0.84, -0.84, -0.16, 661.89, -5.33)" xlink:href="#linear-gradient-6"/><linearGradient id="linear-gradient-11" x1="381.6" y1="210.93" x2="399.52" y2="22.32" gradientTransform="translate(475.8 763.93) rotate(-135)" xlink:href="#linear-gradient-5"/><linearGradient id="linear-gradient-12" x1="-956.22" y1="-786.93" x2="-627.68" y2="-786.93" gradientTransform="matrix(0.47, -0.71, 0.47, 0.71, 1063.72, 23.43)" xlink:href="#linear-gradient-5"/><clipPath id="clip-path-2" transform="translate(-7.23 88.74)"><circle class="cls-1" cx="404.43" cy="85.31" r="46.04" transform="translate(226.43 458.35) rotate(-76.4)"/></clipPath></defs><title>bnn</title><g class="cls-2"><g id="Layer_1" data-name="Layer 1"><g class="cls-3"><path class="cls-4" d="M82.9,454.1a50.23,50.23,0,1,0-50.23-50.23A50.23,50.23,0,0,0,82.9,454.1Zm0-70.54a20.31,20.31,0,1,1-20.3,20.31A20.31,20.31,0,0,1,82.9,383.56Z" transform="translate(-7.23 88.74)"/><rect class="cls-5" x="318.68" y="487.99" width="38.93" height="15.76" transform="translate(669.06 1080.47) rotate(180)"/><rect class="cls-6" x="182.85" y="298.14" width="245.57" height="245.57" rx="30.82" transform="translate(-215.36 428.14) rotate(-45)"/><rect class="cls-7" x="161.46" y="-50.65" width="245.57" height="245.57" rx="30.82" transform="translate(25.01 310.86) rotate(-45)"/><rect class="cls-8" x="354.47" y="227.12" width="245.57" height="245.57" rx="30.82" transform="translate(-114.87 528.7) rotate(-45)"/><rect class="cls-9" x="294.73" y="42.26" width="245.57" height="245.57" rx="30.82" transform="translate(-1.66 432.31) rotate(-45)"/><rect class="cls-10" x="414.24" y="53.62" width="245.57" height="245.57" rx="30.82" transform="translate(25.32 520.14) rotate(-45)"/><rect class="cls-11" x="238.8" y="-30.91" width="160.28" height="160.28" rx="32.02" transform="translate(572.05 -52.75) rotate(135)"/><rect class="cls-12" x="434.02" y="189.31" width="160.28" height="160.28" rx="32.02" transform="translate(1061.02 185.16) rotate(135)"/><path class="cls-13" d="M17.58,511.43,223.75,305.26a34.14,34.14,0,0,1,48.29,0l2.2,2.2a34.14,34.14,0,0,1,0,48.29L68.07,561.92a34.14,34.14,0,0,1-48.29,0l-2.2-2.2A34.14,34.14,0,0,1,17.58,511.43Z" transform="translate(-7.23 88.74)"/><rect class="cls-14" x="106.52" y="431.98" width="231.1" height="45.85" rx="21.93" transform="translate(-263.86 379.01) rotate(-45)"/><rect class="cls-15" x="165.05" y="-2.73" width="299.53" height="59.43" rx="29.72" transform="translate(65.89 319.25) rotate(-45)"/><g class="cls-16"><g class="cls-17"><rect class="cls-18" x="408.6" y="38.54" width="1.81" height="223.32" transform="translate(585.65 634.71) rotate(-135)"/><rect class="cls-18" x="408.6" y="29.84" width="1.81" height="223.32" transform="translate(591.8 619.85) rotate(-135)"/><rect class="cls-18" x="408.6" y="21.14" width="1.81" height="223.32" transform="translate(597.94 605.01) rotate(-135)"/><rect class="cls-18" x="408.6" y="12.44" width="1.81" height="223.32" transform="translate(604.1 590.15) rotate(-135)"/><rect class="cls-18" x="408.6" y="3.74" width="1.81" height="223.32" transform="translate(610.25 575.3) rotate(-135)"/><rect class="cls-18" x="408.6" y="-4.96" width="1.81" height="223.32" transform="translate(616.41 560.44) rotate(-135)"/><rect class="cls-18" x="408.6" y="-13.66" width="1.81" height="223.32" transform="translate(622.56 545.59) rotate(-135)"/><rect class="cls-18" x="408.6" y="-22.37" width="1.81" height="223.32" transform="translate(628.72 530.73) rotate(-135)"/><rect class="cls-18" x="408.6" y="-31.07" width="1.81" height="223.32" transform="translate(634.87 515.88) rotate(-135)"/><rect class="cls-18" x="408.6" y="-39.77" width="1.81" height="223.32" transform="translate(641.02 501.02) rotate(-135)"/><rect class="cls-18" x="408.6" y="-48.47" width="1.81" height="223.32" transform="translate(647.17 486.17) rotate(-135)"/><rect class="cls-18" x="408.6" y="-57.17" width="1.81" height="223.32" transform="translate(653.32 471.32) rotate(-135)"/><rect class="cls-18" x="408.6" y="-65.87" width="1.81" height="223.32" transform="translate(659.47 456.47) rotate(-135)"/><rect class="cls-18" x="408.6" y="-74.57" width="1.81" height="223.32" transform="translate(665.63 441.61) rotate(-135)"/><rect class="cls-18" x="408.6" y="-83.27" width="1.81" height="223.32" transform="translate(671.77 426.76) rotate(-135)"/><rect class="cls-18" x="408.6" y="-91.97" width="1.81" height="223.32" transform="translate(677.93 411.9) rotate(-135)"/><rect class="cls-18" x="408.6" y="-100.67" width="1.81" height="223.32" transform="translate(684.08 397.05) rotate(-135)"/></g></g><path class="cls-19" d="M203,121.25a28.69,28.69,0,1,0-28.69-28.69A28.69,28.69,0,0,0,203,121.25Zm0-42.66a14,14,0,1,1-14,14A14,14,0,0,1,203,78.59Z" transform="translate(-7.23 88.74)"/><path class="cls-18" d="M394.32,357.94a1.55,1.55,0,1,1-1.55-1.54A1.55,1.55,0,0,1,394.32,357.94Z" transform="translate(-7.23 88.74)"/><path class="cls-18" d="M407.53,357.94A1.55,1.55,0,1,1,406,356.4,1.54,1.54,0,0,1,407.53,357.94Z" transform="translate(-7.23 88.74)"/><path class="cls-18" d="M394.32,367.82a1.55,1.55,0,1,1-1.55-1.55A1.56,1.56,0,0,1,394.32,367.82Z" transform="translate(-7.23 88.74)"/><path class="cls-18" d="M407.53,367.82a1.55,1.55,0,1,1-1.55-1.55A1.55,1.55,0,0,1,407.53,367.82Z" transform="translate(-7.23 88.74)"/><path class="cls-18" d="M394.32,378.18a1.55,1.55,0,1,1-1.55-1.55A1.55,1.55,0,0,1,394.32,378.18Z" transform="translate(-7.23 88.74)"/><path class="cls-18" d="M407.53,378.18a1.55,1.55,0,1,1-1.55-1.55A1.54,1.54,0,0,1,407.53,378.18Z" transform="translate(-7.23 88.74)"/><path class="cls-18" d="M419.67,357.94a1.55,1.55,0,1,1-1.55-1.54A1.54,1.54,0,0,1,419.67,357.94Z" transform="translate(-7.23 88.74)"/><path class="cls-18" d="M432.88,357.94a1.55,1.55,0,1,1-1.55-1.54A1.54,1.54,0,0,1,432.88,357.94Z" transform="translate(-7.23 88.74)"/><path class="cls-18" d="M419.67,367.82a1.55,1.55,0,1,1-1.55-1.55A1.55,1.55,0,0,1,419.67,367.82Z" transform="translate(-7.23 88.74)"/><path class="cls-18" d="M432.88,367.82a1.55,1.55,0,1,1-1.55-1.55A1.55,1.55,0,0,1,432.88,367.82Z" transform="translate(-7.23 88.74)"/><path class="cls-18" d="M419.67,378.18a1.55,1.55,0,1,1-1.55-1.55A1.54,1.54,0,0,1,419.67,378.18Z" transform="translate(-7.23 88.74)"/><path class="cls-18" d="M432.88,378.18a1.55,1.55,0,1,1-1.55-1.55A1.54,1.54,0,0,1,432.88,378.18Z" transform="translate(-7.23 88.74)"/><circle class="cls-18" cx="417.81" cy="236.78" r="2.09"/><path class="cls-18" d="M415,158.3a2.2,2.2,0,1,1,3.11,0A2.2,2.2,0,0,1,415,158.3Z" transform="translate(-7.23 88.74)"/><path class="cls-18" d="M406.43,166.89a2.2,2.2,0,1,1,3.11,0A2.2,2.2,0,0,1,406.43,166.89Z" transform="translate(-7.23 88.74)"/><path class="cls-18" d="M138.88,322.45a1.55,1.55,0,1,1-1.55-1.55A1.54,1.54,0,0,1,138.88,322.45Z" transform="translate(-7.23 88.74)"/><path class="cls-18" d="M152.09,322.45a1.55,1.55,0,1,1-1.54-1.55A1.54,1.54,0,0,1,152.09,322.45Z" transform="translate(-7.23 88.74)"/><path class="cls-18" d="M138.88,332.33a1.55,1.55,0,1,1-1.55-1.55A1.54,1.54,0,0,1,138.88,332.33Z" transform="translate(-7.23 88.74)"/><path class="cls-18" d="M152.09,332.33a1.55,1.55,0,1,1-1.54-1.55A1.54,1.54,0,0,1,152.09,332.33Z" transform="translate(-7.23 88.74)"/><path class="cls-18" d="M138.88,342.68a1.55,1.55,0,1,1-1.55-1.54A1.54,1.54,0,0,1,138.88,342.68Z" transform="translate(-7.23 88.74)"/><path class="cls-18" d="M152.09,342.68a1.55,1.55,0,1,1-1.54-1.54A1.54,1.54,0,0,1,152.09,342.68Z" transform="translate(-7.23 88.74)"/><path class="cls-18" d="M164.24,322.45a1.55,1.55,0,1,1-1.55-1.55A1.55,1.55,0,0,1,164.24,322.45Z" transform="translate(-7.23 88.74)"/><path class="cls-18" d="M177.45,322.45a1.55,1.55,0,1,1-1.55-1.55A1.55,1.55,0,0,1,177.45,322.45Z" transform="translate(-7.23 88.74)"/><path class="cls-18" d="M164.24,332.33a1.55,1.55,0,1,1-1.55-1.55A1.55,1.55,0,0,1,164.24,332.33Z" transform="translate(-7.23 88.74)"/><path class="cls-18" d="M177.45,332.33a1.55,1.55,0,1,1-1.55-1.55A1.55,1.55,0,0,1,177.45,332.33Z" transform="translate(-7.23 88.74)"/><path class="cls-18" d="M164.24,342.68a1.55,1.55,0,1,1-1.55-1.54A1.55,1.55,0,0,1,164.24,342.68Z" transform="translate(-7.23 88.74)"/><path class="cls-18" d="M177.45,342.68a1.55,1.55,0,1,1-1.55-1.54A1.55,1.55,0,0,1,177.45,342.68Z" transform="translate(-7.23 88.74)"/><path class="cls-20" d="M55.53,65.7,95.81,106a9.49,9.49,0,0,1,0,13.43h0a9.49,9.49,0,0,1-13.43,0L42.1,79.13a9.49,9.49,0,0,1,0-13.43h0A9.51,9.51,0,0,1,55.53,65.7Z" transform="translate(-7.23 88.74)"/><path class="cls-21" d="M78.83,45,119.12,85.3a9.49,9.49,0,0,1,0,13.43h0a9.49,9.49,0,0,1-13.43,0L65.4,58.44A9.49,9.49,0,0,1,65.4,45h0A9.49,9.49,0,0,1,78.83,45Z" transform="translate(-7.23 88.74)"/><path class="cls-19" d="M426.29,266.64A28.69,28.69,0,1,0,397.6,238,28.7,28.7,0,0,0,426.29,266.64Zm0-42.67a14,14,0,1,1-14,14A14,14,0,0,1,426.29,224Z" transform="translate(-7.23 88.74)"/><path class="cls-19" d="M387.08,220.93a5.84,5.84,0,1,0-5.83-5.83A5.83,5.83,0,0,0,387.08,220.93Zm0-8.68a2.85,2.85,0,1,1-2.84,2.85A2.85,2.85,0,0,1,387.08,212.25Z" transform="translate(-7.23 88.74)"/><path class="cls-19" d="M249.08,357.46a8.95,8.95,0,1,0-9-8.94A8.94,8.94,0,0,0,249.08,357.46Zm0-13.3a4.36,4.36,0,1,1-4.36,4.36A4.36,4.36,0,0,1,249.08,344.16Z" transform="translate(-7.23 88.74)"/><path class="cls-19" d="M320.76,101.51a8.95,8.95,0,1,0-8.95-9A8.95,8.95,0,0,0,320.76,101.51Zm0-13.31a4.36,4.36,0,1,1-4.36,4.36A4.37,4.37,0,0,1,320.76,88.2Z" transform="translate(-7.23 88.74)"/><path class="cls-19" d="M358.39,436.64A28.69,28.69,0,1,0,329.7,408,28.7,28.7,0,0,0,358.39,436.64Zm0-42.67a14,14,0,1,1-14,14A14,14,0,0,1,358.39,394Z" transform="translate(-7.23 88.74)"/><path class="cls-18" d="M292.91,282.59a1.5,1.5,0,1,1,2.11,0A1.51,1.51,0,0,1,292.91,282.59Z" transform="translate(-7.23 88.74)"/><path class="cls-18" d="M287.08,288.41a1.49,1.49,0,1,1,2.11,0A1.48,1.48,0,0,1,287.08,288.41Z" transform="translate(-7.23 88.74)"/><path class="cls-18" d="M281.25,294.24a1.49,1.49,0,0,1,2.11-2.11,1.49,1.49,0,0,1-2.11,2.11Z" transform="translate(-7.23 88.74)"/><circle class="cls-18" cx="204.85" cy="284.75" r="1.39"/><path class="cls-18" d="M218.92,203a1.5,1.5,0,0,1-2.12-2.11,1.5,1.5,0,1,1,2.12,2.11Z" transform="translate(-7.23 88.74)"/><path class="cls-18" d="M224.74,208.83a1.5,1.5,0,1,1,0-2.12A1.5,1.5,0,0,1,224.74,208.83Z" transform="translate(-7.23 88.74)"/><path class="cls-18" d="M368.82,307.24h3.53a2,2,0,0,1,1.95,1.94v3.07a1.94,1.94,0,0,0,1.94,1.94h1.67a1.94,1.94,0,0,0,1.95-1.94v-3.07a1.94,1.94,0,0,1,1.94-1.94h3.06a2,2,0,0,0,1.95-1.95v-1.67a1.94,1.94,0,0,0-1.95-1.94H381.8a1.94,1.94,0,0,1-1.94-1.95v-3.06a2,2,0,0,0-1.95-1.95h-1.67a1.94,1.94,0,0,0-1.94,1.95v3.06a2,2,0,0,1-1.95,1.95h-3.53a1.94,1.94,0,0,0-1.94,1.94v1.67A1.94,1.94,0,0,0,368.82,307.24Z" transform="translate(-7.23 88.74)"/><path class="cls-18" d="M245.54,128.81h3.07a1.94,1.94,0,0,1,1.94,1.94v3.06a2,2,0,0,0,1.95,1.95h1.67a1.94,1.94,0,0,0,1.94-1.95v-3.06a1.94,1.94,0,0,1,1.95-1.94h3.06a2,2,0,0,0,1.94-2v-1.67a1.94,1.94,0,0,0-1.94-2h-3.06a1.94,1.94,0,0,1-1.95-1.94v-3.06a1.94,1.94,0,0,0-1.94-1.95H252.5a2,2,0,0,0-1.95,1.95v3.06a1.94,1.94,0,0,1-1.94,1.94h-3.07a1.94,1.94,0,0,0-1.94,2v1.67A2,2,0,0,0,245.54,128.81Z" transform="translate(-7.23 88.74)"/><path class="cls-18" d="M129.57,383.24h2a1.26,1.26,0,0,1,1.26,1.27v2.11a1.27,1.27,0,0,0,1.26,1.26h1.19a1.26,1.26,0,0,0,1.26-1.26V385a1.25,1.25,0,0,1,1.26-1.26h2.11a1.26,1.26,0,0,0,1.26-1.26v-1.19a1.26,1.26,0,0,0-1.26-1.26H137.8a1.25,1.25,0,0,1-1.26-1.26v-2.11a1.25,1.25,0,0,0-1.26-1.26h-1.19a1.26,1.26,0,0,0-1.26,1.26v1.92s-.54,1.26-1.24,1.45h-2a1.15,1.15,0,0,0-1.37,1.07v1.16C128.31,382.93,129.57,383.24,129.57,383.24Z" transform="translate(-7.23 88.74)"/><rect class="cls-1" x="7.23" y="92.66" width="471.34" height="314.23" transform="translate(478.57 588.28) rotate(180)"/></g></g></g></svg>